%TF.GenerationSoftware,KiCad,Pcbnew,5.1.8*%
%TF.CreationDate,2020-12-03T20:02:01+01:00*%
%TF.ProjectId,christmas_board,63687269-7374-46d6-9173-5f626f617264,rev?*%
%TF.SameCoordinates,Original*%
%TF.FileFunction,Legend,Top*%
%TF.FilePolarity,Positive*%
%FSLAX46Y46*%
G04 Gerber Fmt 4.6, Leading zero omitted, Abs format (unit mm)*
G04 Created by KiCad (PCBNEW 5.1.8) date 2020-12-03 20:02:01*
%MOMM*%
%LPD*%
G01*
G04 APERTURE LIST*
%ADD10C,0.120000*%
%ADD11C,0.381000*%
%ADD12C,0.150000*%
G04 APERTURE END LIST*
D10*
%TO.C,D8*%
X174943750Y-106787500D02*
X182243750Y-106787500D01*
X174943750Y-112287500D02*
X182243750Y-112287500D01*
X182243750Y-112287500D02*
X182243750Y-111137500D01*
%TO.C,D7*%
X171768750Y-87737500D02*
X179068750Y-87737500D01*
X171768750Y-93237500D02*
X179068750Y-93237500D01*
X179068750Y-93237500D02*
X179068750Y-92087500D01*
D11*
%TO.C,U1*%
X155733750Y-143827500D02*
X137953750Y-143827500D01*
X137953750Y-143827500D02*
X137953750Y-113347500D01*
X137953750Y-113347500D02*
X155733750Y-113347500D01*
X155733750Y-113347500D02*
X155733750Y-143827500D01*
X140493750Y-143827500D02*
X140493750Y-141287500D01*
X140493750Y-141287500D02*
X137953750Y-141287500D01*
D12*
%TO.C,J2*%
X140811250Y-33020000D02*
X150971250Y-33020000D01*
X150971250Y-33020000D02*
X150971250Y-30480000D01*
X150971250Y-30480000D02*
X140811250Y-30480000D01*
X140811250Y-30480000D02*
X140811250Y-33020000D01*
D10*
%TO.C,D6*%
X167800000Y-67893750D02*
X175100000Y-67893750D01*
X167800000Y-73393750D02*
X175100000Y-73393750D01*
X175100000Y-73393750D02*
X175100000Y-72243750D01*
%TO.C,D5*%
X165418750Y-50431250D02*
X172718750Y-50431250D01*
X165418750Y-55931250D02*
X172718750Y-55931250D01*
X172718750Y-55931250D02*
X172718750Y-54781250D01*
%TO.C,D4*%
X120175000Y-48843750D02*
X127475000Y-48843750D01*
X120175000Y-54343750D02*
X127475000Y-54343750D01*
X127475000Y-54343750D02*
X127475000Y-53193750D01*
%TO.C,D3*%
X117793750Y-67893750D02*
X125093750Y-67893750D01*
X117793750Y-73393750D02*
X125093750Y-73393750D01*
X125093750Y-73393750D02*
X125093750Y-72243750D01*
%TO.C,D2*%
X114618750Y-86943750D02*
X121918750Y-86943750D01*
X114618750Y-92443750D02*
X121918750Y-92443750D01*
X121918750Y-92443750D02*
X121918750Y-91293750D01*
%TO.C,D1*%
X118743750Y-112287500D02*
X111443750Y-112287500D01*
X118743750Y-106787500D02*
X111443750Y-106787500D01*
X111443750Y-106787500D02*
X111443750Y-107937500D01*
%TO.C,D8*%
D12*
X177855654Y-106489880D02*
X177855654Y-105489880D01*
X178093750Y-105489880D01*
X178236607Y-105537500D01*
X178331845Y-105632738D01*
X178379464Y-105727976D01*
X178427083Y-105918452D01*
X178427083Y-106061309D01*
X178379464Y-106251785D01*
X178331845Y-106347023D01*
X178236607Y-106442261D01*
X178093750Y-106489880D01*
X177855654Y-106489880D01*
X178998511Y-105918452D02*
X178903273Y-105870833D01*
X178855654Y-105823214D01*
X178808035Y-105727976D01*
X178808035Y-105680357D01*
X178855654Y-105585119D01*
X178903273Y-105537500D01*
X178998511Y-105489880D01*
X179188988Y-105489880D01*
X179284226Y-105537500D01*
X179331845Y-105585119D01*
X179379464Y-105680357D01*
X179379464Y-105727976D01*
X179331845Y-105823214D01*
X179284226Y-105870833D01*
X179188988Y-105918452D01*
X178998511Y-105918452D01*
X178903273Y-105966071D01*
X178855654Y-106013690D01*
X178808035Y-106108928D01*
X178808035Y-106299404D01*
X178855654Y-106394642D01*
X178903273Y-106442261D01*
X178998511Y-106489880D01*
X179188988Y-106489880D01*
X179284226Y-106442261D01*
X179331845Y-106394642D01*
X179379464Y-106299404D01*
X179379464Y-106108928D01*
X179331845Y-106013690D01*
X179284226Y-105966071D01*
X179188988Y-105918452D01*
X174729464Y-108389880D02*
X174158035Y-108389880D01*
X174443750Y-108389880D02*
X174443750Y-107389880D01*
X174348511Y-107532738D01*
X174253273Y-107627976D01*
X174158035Y-107675595D01*
%TO.C,D7*%
X174680654Y-87439880D02*
X174680654Y-86439880D01*
X174918750Y-86439880D01*
X175061607Y-86487500D01*
X175156845Y-86582738D01*
X175204464Y-86677976D01*
X175252083Y-86868452D01*
X175252083Y-87011309D01*
X175204464Y-87201785D01*
X175156845Y-87297023D01*
X175061607Y-87392261D01*
X174918750Y-87439880D01*
X174680654Y-87439880D01*
X175585416Y-86439880D02*
X176252083Y-86439880D01*
X175823511Y-87439880D01*
X171554464Y-89339880D02*
X170983035Y-89339880D01*
X171268750Y-89339880D02*
X171268750Y-88339880D01*
X171173511Y-88482738D01*
X171078273Y-88577976D01*
X170983035Y-88625595D01*
%TO.C,U1*%
X150853273Y-142939880D02*
X150519940Y-142463690D01*
X150281845Y-142939880D02*
X150281845Y-141939880D01*
X150662797Y-141939880D01*
X150758035Y-141987500D01*
X150805654Y-142035119D01*
X150853273Y-142130357D01*
X150853273Y-142273214D01*
X150805654Y-142368452D01*
X150758035Y-142416071D01*
X150662797Y-142463690D01*
X150281845Y-142463690D01*
X151234226Y-142654166D02*
X151710416Y-142654166D01*
X151138988Y-142939880D02*
X151472321Y-141939880D01*
X151805654Y-142939880D01*
X152043750Y-141939880D02*
X152281845Y-142939880D01*
X152472321Y-142225595D01*
X152662797Y-142939880D01*
X152900892Y-141939880D01*
X141005654Y-141939880D02*
X141577083Y-141939880D01*
X141291369Y-142939880D02*
X141291369Y-141939880D01*
X141815178Y-141939880D02*
X142481845Y-142939880D01*
X142481845Y-141939880D02*
X141815178Y-142939880D01*
X143053273Y-141939880D02*
X143148511Y-141939880D01*
X143243750Y-141987500D01*
X143291369Y-142035119D01*
X143338988Y-142130357D01*
X143386607Y-142320833D01*
X143386607Y-142558928D01*
X143338988Y-142749404D01*
X143291369Y-142844642D01*
X143243750Y-142892261D01*
X143148511Y-142939880D01*
X143053273Y-142939880D01*
X142958035Y-142892261D01*
X142910416Y-142844642D01*
X142862797Y-142749404D01*
X142815178Y-142558928D01*
X142815178Y-142320833D01*
X142862797Y-142130357D01*
X142910416Y-142035119D01*
X142958035Y-141987500D01*
X143053273Y-141939880D01*
%TO.C,J2*%
X144378869Y-33302380D02*
X144569345Y-33302380D01*
X144664583Y-33350000D01*
X144759821Y-33445238D01*
X144807440Y-33635714D01*
X144807440Y-33969047D01*
X144759821Y-34159523D01*
X144664583Y-34254761D01*
X144569345Y-34302380D01*
X144378869Y-34302380D01*
X144283630Y-34254761D01*
X144188392Y-34159523D01*
X144140773Y-33969047D01*
X144140773Y-33635714D01*
X144188392Y-33445238D01*
X144283630Y-33350000D01*
X144378869Y-33302380D01*
X145712202Y-34302380D02*
X145236011Y-34302380D01*
X145236011Y-33302380D01*
X146045535Y-33778571D02*
X146378869Y-33778571D01*
X146521726Y-34302380D02*
X146045535Y-34302380D01*
X146045535Y-33302380D01*
X146521726Y-33302380D01*
X146950297Y-34302380D02*
X146950297Y-33302380D01*
X147188392Y-33302380D01*
X147331250Y-33350000D01*
X147426488Y-33445238D01*
X147474107Y-33540476D01*
X147521726Y-33730952D01*
X147521726Y-33873809D01*
X147474107Y-34064285D01*
X147426488Y-34159523D01*
X147331250Y-34254761D01*
X147188392Y-34302380D01*
X146950297Y-34302380D01*
%TO.C,D6*%
X170711904Y-67596130D02*
X170711904Y-66596130D01*
X170950000Y-66596130D01*
X171092857Y-66643750D01*
X171188095Y-66738988D01*
X171235714Y-66834226D01*
X171283333Y-67024702D01*
X171283333Y-67167559D01*
X171235714Y-67358035D01*
X171188095Y-67453273D01*
X171092857Y-67548511D01*
X170950000Y-67596130D01*
X170711904Y-67596130D01*
X172140476Y-66596130D02*
X171950000Y-66596130D01*
X171854761Y-66643750D01*
X171807142Y-66691369D01*
X171711904Y-66834226D01*
X171664285Y-67024702D01*
X171664285Y-67405654D01*
X171711904Y-67500892D01*
X171759523Y-67548511D01*
X171854761Y-67596130D01*
X172045238Y-67596130D01*
X172140476Y-67548511D01*
X172188095Y-67500892D01*
X172235714Y-67405654D01*
X172235714Y-67167559D01*
X172188095Y-67072321D01*
X172140476Y-67024702D01*
X172045238Y-66977083D01*
X171854761Y-66977083D01*
X171759523Y-67024702D01*
X171711904Y-67072321D01*
X171664285Y-67167559D01*
X167585714Y-69496130D02*
X167014285Y-69496130D01*
X167300000Y-69496130D02*
X167300000Y-68496130D01*
X167204761Y-68638988D01*
X167109523Y-68734226D01*
X167014285Y-68781845D01*
%TO.C,D5*%
X168330654Y-50133630D02*
X168330654Y-49133630D01*
X168568750Y-49133630D01*
X168711607Y-49181250D01*
X168806845Y-49276488D01*
X168854464Y-49371726D01*
X168902083Y-49562202D01*
X168902083Y-49705059D01*
X168854464Y-49895535D01*
X168806845Y-49990773D01*
X168711607Y-50086011D01*
X168568750Y-50133630D01*
X168330654Y-50133630D01*
X169806845Y-49133630D02*
X169330654Y-49133630D01*
X169283035Y-49609821D01*
X169330654Y-49562202D01*
X169425892Y-49514583D01*
X169663988Y-49514583D01*
X169759226Y-49562202D01*
X169806845Y-49609821D01*
X169854464Y-49705059D01*
X169854464Y-49943154D01*
X169806845Y-50038392D01*
X169759226Y-50086011D01*
X169663988Y-50133630D01*
X169425892Y-50133630D01*
X169330654Y-50086011D01*
X169283035Y-50038392D01*
X165204464Y-52033630D02*
X164633035Y-52033630D01*
X164918750Y-52033630D02*
X164918750Y-51033630D01*
X164823511Y-51176488D01*
X164728273Y-51271726D01*
X164633035Y-51319345D01*
%TO.C,D4*%
X123086904Y-48546130D02*
X123086904Y-47546130D01*
X123325000Y-47546130D01*
X123467857Y-47593750D01*
X123563095Y-47688988D01*
X123610714Y-47784226D01*
X123658333Y-47974702D01*
X123658333Y-48117559D01*
X123610714Y-48308035D01*
X123563095Y-48403273D01*
X123467857Y-48498511D01*
X123325000Y-48546130D01*
X123086904Y-48546130D01*
X124515476Y-47879464D02*
X124515476Y-48546130D01*
X124277380Y-47498511D02*
X124039285Y-48212797D01*
X124658333Y-48212797D01*
X119960714Y-50446130D02*
X119389285Y-50446130D01*
X119675000Y-50446130D02*
X119675000Y-49446130D01*
X119579761Y-49588988D01*
X119484523Y-49684226D01*
X119389285Y-49731845D01*
%TO.C,D3*%
X120705654Y-67596130D02*
X120705654Y-66596130D01*
X120943750Y-66596130D01*
X121086607Y-66643750D01*
X121181845Y-66738988D01*
X121229464Y-66834226D01*
X121277083Y-67024702D01*
X121277083Y-67167559D01*
X121229464Y-67358035D01*
X121181845Y-67453273D01*
X121086607Y-67548511D01*
X120943750Y-67596130D01*
X120705654Y-67596130D01*
X121610416Y-66596130D02*
X122229464Y-66596130D01*
X121896130Y-66977083D01*
X122038988Y-66977083D01*
X122134226Y-67024702D01*
X122181845Y-67072321D01*
X122229464Y-67167559D01*
X122229464Y-67405654D01*
X122181845Y-67500892D01*
X122134226Y-67548511D01*
X122038988Y-67596130D01*
X121753273Y-67596130D01*
X121658035Y-67548511D01*
X121610416Y-67500892D01*
X117579464Y-69496130D02*
X117008035Y-69496130D01*
X117293750Y-69496130D02*
X117293750Y-68496130D01*
X117198511Y-68638988D01*
X117103273Y-68734226D01*
X117008035Y-68781845D01*
%TO.C,D2*%
X117530654Y-86646130D02*
X117530654Y-85646130D01*
X117768750Y-85646130D01*
X117911607Y-85693750D01*
X118006845Y-85788988D01*
X118054464Y-85884226D01*
X118102083Y-86074702D01*
X118102083Y-86217559D01*
X118054464Y-86408035D01*
X118006845Y-86503273D01*
X117911607Y-86598511D01*
X117768750Y-86646130D01*
X117530654Y-86646130D01*
X118483035Y-85741369D02*
X118530654Y-85693750D01*
X118625892Y-85646130D01*
X118863988Y-85646130D01*
X118959226Y-85693750D01*
X119006845Y-85741369D01*
X119054464Y-85836607D01*
X119054464Y-85931845D01*
X119006845Y-86074702D01*
X118435416Y-86646130D01*
X119054464Y-86646130D01*
X114404464Y-88546130D02*
X113833035Y-88546130D01*
X114118750Y-88546130D02*
X114118750Y-87546130D01*
X114023511Y-87688988D01*
X113928273Y-87784226D01*
X113833035Y-87831845D01*
%TO.C,D1*%
X114355654Y-113489880D02*
X114355654Y-112489880D01*
X114593750Y-112489880D01*
X114736607Y-112537500D01*
X114831845Y-112632738D01*
X114879464Y-112727976D01*
X114927083Y-112918452D01*
X114927083Y-113061309D01*
X114879464Y-113251785D01*
X114831845Y-113347023D01*
X114736607Y-113442261D01*
X114593750Y-113489880D01*
X114355654Y-113489880D01*
X115879464Y-113489880D02*
X115308035Y-113489880D01*
X115593750Y-113489880D02*
X115593750Y-112489880D01*
X115498511Y-112632738D01*
X115403273Y-112727976D01*
X115308035Y-112775595D01*
X119529464Y-111589880D02*
X118958035Y-111589880D01*
X119243750Y-111589880D02*
X119243750Y-110589880D01*
X119148511Y-110732738D01*
X119053273Y-110827976D01*
X118958035Y-110875595D01*
%TD*%
M02*
