M48
; DRILL file {KiCad 5.1.8} date Thu Dec  3 20:01:50 2020
; FORMAT={-:-/ absolute / inch / decimal}
; #@! TF.CreationDate,2020-12-03T20:01:50+01:00
; #@! TF.GenerationSoftware,Kicad,Pcbnew,5.1.8
; #@! TF.FileFunction,Plated,1,2,PTH
FMAT,2
INCH
T1C0.0157
T2C0.0315
T3C0.0320
T4C0.0430
T5C0.0472
T6C0.0579
%
G90
G05
T1
X4.4688Y-3.5312
X4.5625Y-2.875
X4.625Y-2.125
X4.6562Y-3.5312
X4.7188Y-4.375
X4.75Y-3.6875
X4.875Y-1.8125
X4.875Y-2.9688
X4.9205Y-4.3268
X4.9688Y-2.25
X5.125Y-4.4688
X5.4062Y-4.4375
X5.7188Y-1.375
X5.7423Y-4.7111
X5.7454Y-4.8079
X5.75Y-0.9375
X6.2188Y-2.875
X6.4946Y-4.0312
X6.7188Y-1.9062
X6.75Y-2.7812
X6.7812Y-4.0938
X6.8438Y-2.125
X6.9062Y-3.5625
T2
X6.5625Y-3.8575
X6.5625Y-3.9363
X6.5625Y-4.015
X6.5625Y-4.0938
X6.6412Y-3.8575
X6.6412Y-3.9363
X6.6412Y-4.015
X6.6412Y-4.0938
T3
X5.5938Y-1.25
X5.6937Y-1.25
X5.7938Y-1.25
X5.8937Y-1.25
T4
X5.4813Y-4.5125
X5.4813Y-4.6125
X5.4813Y-4.7125
X5.4813Y-4.8125
X5.4813Y-4.9125
X5.4813Y-5.0125
X5.4813Y-5.1125
X5.4813Y-5.2125
X5.4813Y-5.3125
X5.4813Y-5.4125
X5.4813Y-5.5125
X5.4813Y-5.6125
X6.0812Y-4.5125
X6.0812Y-4.6125
X6.0812Y-4.7125
X6.0812Y-4.8125
X6.0812Y-4.9125
X6.0812Y-5.0125
X6.0812Y-5.1125
X6.0812Y-5.2125
X6.0812Y-5.3125
X6.0812Y-5.4125
X6.0812Y-5.5125
X6.0812Y-5.6125
T5
X5.4062Y-1.6427
X5.6031Y-1.7254
X5.4062Y-2.3927
X5.6031Y-2.4754
X6.1562Y-3.1427
X6.3531Y-3.2254
X6.1562Y-1.6427
X6.3531Y-1.7254
X6.1562Y-2.3927
X6.3531Y-2.4754
X5.4062Y-3.8927
X5.6031Y-3.9754
X5.4062Y-3.1427
X5.6031Y-3.2254
X6.1562Y-3.8927
X6.3531Y-3.9754
T6
X6.0062Y-3.275
X6.0578Y-3.2175
X6.2547Y-3.1978
X6.2562Y-3.175
X6.0062Y-1.775
X6.0578Y-1.7175
X6.2547Y-1.6978
X6.2562Y-1.675
X6.0062Y-2.525
X6.0578Y-2.4675
X6.2547Y-2.4478
X6.2562Y-2.425
X5.2562Y-4.025
X5.3078Y-3.9675
X5.5047Y-3.9478
X5.5062Y-3.925
X5.2562Y-3.275
X5.3078Y-3.2175
X5.5047Y-3.1978
X5.5062Y-3.175
X6.0062Y-4.025
X6.0578Y-3.9675
X6.2547Y-3.9478
X6.2562Y-3.925
X5.2562Y-1.775
X5.3078Y-1.7175
X5.5047Y-1.6978
X5.5062Y-1.675
X5.2562Y-2.525
X5.3078Y-2.4675
X5.5047Y-2.4478
X5.5062Y-2.425
T0
M30
