%TF.GenerationSoftware,KiCad,Pcbnew,5.1.8*%
%TF.CreationDate,2020-12-03T20:02:01+01:00*%
%TF.ProjectId,christmas_board,63687269-7374-46d6-9173-5f626f617264,rev?*%
%TF.SameCoordinates,Original*%
%TF.FileFunction,Profile,NP*%
%FSLAX46Y46*%
G04 Gerber Fmt 4.6, Leading zero omitted, Abs format (unit mm)*
G04 Created by KiCad (PCBNEW 5.1.8) date 2020-12-03 20:02:01*
%MOMM*%
%LPD*%
G01*
G04 APERTURE LIST*
%TA.AperFunction,Profile*%
%ADD10C,0.050000*%
%TD*%
G04 APERTURE END LIST*
D10*
X137318750Y-144462500D02*
G75*
G02*
X136525000Y-143668750I0J793750D01*
G01*
X135731250Y-114300000D02*
G75*
G02*
X136525000Y-115093750I0J-793750D01*
G01*
X157162500Y-115093750D02*
G75*
G02*
X157956250Y-114300000I793750J0D01*
G01*
X157162500Y-143668750D02*
G75*
G02*
X156368750Y-144462500I-793750J0D01*
G01*
X157162500Y-143668750D02*
X157162500Y-115093750D01*
X136525000Y-115093750D02*
X136525000Y-143668750D01*
X109537500Y-76200000D02*
X123825000Y-57150000D01*
X135731250Y-114300000D02*
X99218750Y-114300000D01*
X99218750Y-114300000D02*
X120650000Y-95250000D01*
X120650000Y-95250000D02*
X104775000Y-95250000D01*
X112712500Y-57150000D02*
X146050000Y-15081250D01*
X120650000Y-76200000D02*
X109537500Y-76200000D01*
X123825000Y-57150000D02*
X112712500Y-57150000D01*
X104775000Y-95250000D02*
X120650000Y-76200000D01*
X179387500Y-57150000D02*
X146050000Y-15081250D01*
X168275000Y-57150000D02*
X179387500Y-57150000D01*
X182562500Y-76200000D02*
X168275000Y-57150000D01*
X171450000Y-76200000D02*
X182562500Y-76200000D01*
X187325000Y-95250000D02*
X171450000Y-76200000D01*
X171450000Y-95250000D02*
X187325000Y-95250000D01*
X192881250Y-114300000D02*
X171450000Y-95250000D01*
X157956250Y-114300000D02*
X192881250Y-114300000D01*
X137318750Y-144462500D02*
X156368750Y-144462500D01*
M02*
