M48
; DRILL file {KiCad 5.1.8} date Thu Dec  3 20:01:50 2020
; FORMAT={-:-/ absolute / inch / decimal}
; #@! TF.CreationDate,2020-12-03T20:01:50+01:00
; #@! TF.GenerationSoftware,Kicad,Pcbnew,5.1.8
; #@! TF.FileFunction,NonPlated,1,2,NPTH
FMAT,2
INCH
T1C0.0472
T2C0.0669
T3C0.0689
T4C0.1570
%
G90
G05
T1
X5.2007Y-2.0404
X5.9507Y-3.5404
X5.9507Y-2.0404
X5.9507Y-2.7904
X5.2007Y-4.2904
X5.2007Y-3.5404
X5.9507Y-4.2904
X5.2007Y-2.7904
T2
X5.9397Y-1.875
X6.3728Y-1.875
X5.9397Y-2.625
X6.3728Y-2.625
X5.1897Y-4.125
X5.6228Y-4.125
X5.1897Y-3.375
X5.6228Y-3.375
X5.9397Y-4.125
X6.3728Y-4.125
X5.1897Y-1.875
X5.6228Y-1.875
X5.1897Y-2.625
X5.6228Y-2.625
X5.9397Y-3.375
X6.3728Y-3.375
T3
X5.2062Y-1.875
X5.6063Y-1.875
X5.2062Y-2.625
X5.6063Y-2.625
X5.9562Y-3.375
X6.3563Y-3.375
X5.9562Y-1.875
X6.3563Y-1.875
X5.9562Y-2.625
X6.3563Y-2.625
X5.2062Y-4.125
X5.6063Y-4.125
X5.2062Y-3.375
X5.6063Y-3.375
X5.9562Y-4.125
X6.3563Y-4.125
T4
X5.4062Y-3.375
X5.4062Y-2.625
X6.1562Y-3.375
X5.4062Y-4.125
X6.1562Y-4.125
X5.4062Y-1.875
X6.1562Y-1.875
X6.1562Y-2.625
T0
M30
